<svg width="35" height="25" viewBox="0 0 35 25" fill="none" xmlns="http://www.w3.org/2000/svg">
<path d="M33.5107 3.28125L29.3187 3.28125" stroke="white" stroke-width="1.048" stroke-linecap="round"/>
<path d="M31.415 5.37695L31.415 1.18495" stroke="white" stroke-width="1.048" stroke-linecap="round"/>
<path d="M7.31084 11.6666C8.46843 11.6666 9.40684 10.7282 9.40684 9.57061C9.40684 8.41302 8.46843 7.47461 7.31084 7.47461C6.15325 7.47461 5.21484 8.41302 5.21484 9.57061C5.21484 10.7282 6.15325 11.6666 7.31084 11.6666Z" stroke="white" stroke-width="1.048" stroke-linecap="round" stroke-linejoin="round"/>
<path d="M2.07031 22.1463L10.4729 15.915C11.7367 14.9918 13.5605 15.0963 14.6964 16.1589L15.2243 16.664C16.4722 17.831 18.488 17.831 19.7358 16.664L26.3911 10.4456C27.639 9.27855 29.6547 9.27855 30.9026 10.4456L33.5103 12.8842" stroke="white" stroke-width="1.048" stroke-linecap="round" stroke-linejoin="round"/>
<path d="M25.6505 3.2832H4.16646C2.43008 3.2832 1.02246 4.69082 1.02246 6.4272V21.0992C1.02246 22.8356 2.43008 24.2432 4.16646 24.2432H30.3665C32.1028 24.2432 33.5105 22.8356 33.5105 21.0992V7.4752" stroke="white" stroke-width="1.048" stroke-linecap="round"/>
</svg>
